<svg xmlns="http://www.w3.org/2000/svg" width="24.547" height="19.392" viewBox="0 0 24.547 19.392">
  <path id="Icon_awesome-home" data-name="Icon awesome-home" d="M11.46,7,3.924,13.21v6.7a.654.654,0,0,0,.654.654l4.58-.012a.654.654,0,0,0,.651-.654V15.985a.654.654,0,0,1,.654-.654h2.616a.654.654,0,0,1,.654.654v3.909a.654.654,0,0,0,.654.656l4.579.013a.654.654,0,0,0,.654-.654v-6.7L12.085,7A.5.5,0,0,0,11.46,7Zm11.9,4.219L19.946,8.406V2.744a.49.49,0,0,0-.49-.49H17.167a.49.49,0,0,0-.49.49V5.712L13.017,2.7a1.962,1.962,0,0,0-2.493,0L.177,11.222a.49.49,0,0,0-.065.691L1.154,13.18a.491.491,0,0,0,.691.067L11.46,5.328a.5.5,0,0,1,.625,0L21.7,13.247a.49.49,0,0,0,.691-.065l1.042-1.267a.49.49,0,0,0-.069-.692Z" transform="translate(0.502 -1.671)" fill="none" stroke="#fff" stroke-width="1"/>
</svg>
