<svg xmlns="http://www.w3.org/2000/svg" width="12" height="14.624" viewBox="0 0 12 14.624"><g transform="translate(-45.931 0)"><path d="M79.694,474.486H88.48v1.072H79.694Z" transform="translate(-32.799 -460.934)" fill="#fff"/><path d="M45.931,3.172a1.795,1.795,0,0,0,2.335,1.711l.558-.176V6.294a.536.536,0,0,0,1.072,0V3.965h5.786V3.276a1.47,1.47,0,0,0-1.3-1.46l-.264-.031-.089-.251a2.31,2.31,0,0,0-3.368-1.2L50.44.466,50.218.331a1.472,1.472,0,0,0-2.147.764l-.1.277-.294.007a1.794,1.794,0,0,0-1.748,1.793Z" transform="translate(0 0)" fill="#fff"/><path d="M90.731,168.816H83.552v1.472a1.393,1.393,0,1,1-2.785,0v-.482q-.12.011-.242.011a2.64,2.64,0,0,1-.83-.133v7.005H90.731v-7.872Zm-.857,7.015H88.481v-6.158h1.393Z" transform="translate(-32.8 -163.993)" fill="#fff"/></g></svg>