<svg xmlns="http://www.w3.org/2000/svg" width="12.766" height="12.766" viewBox="0 0 12.766 12.766"><g transform="translate(0)"><path d="M22.445,157.088a1.122,1.122,0,0,1-.566-.974A3.12,3.12,0,0,1,25,153H26.28l.06-1H19.063l.523,8.625a.374.374,0,0,0,.373.351h2.295a1.86,1.86,0,0,1-.375-1.122,1.124,1.124,0,0,1,.741-1.055,1.491,1.491,0,0,1,0-1.63C22.5,157.141,22.431,157.114,22.445,157.088Zm0,0" transform="translate(-18.588 -148.21)" fill="#262626"/><path d="M4.112,3.042h3.74a.374.374,0,0,0,0-.748H4.8L5.811.748H7.1A.374.374,0,1,0,7.1,0h-1.5A.374.374,0,0,0,5.3.17L3.91,2.294H.373a.374.374,0,1,0,0,.748h3.74Zm0,0" transform="translate(0.001 0)" fill="#262626"/><path d="M162,224.369a.374.374,0,0,0,.374.374h7.979a.374.374,0,0,0,.374-.374A2.371,2.371,0,0,0,168.358,222h-3.989A2.371,2.371,0,0,0,162,224.369Zm0,0" transform="translate(-157.961 -216.465)" fill="#262626"/><path d="M182.748,362a.748.748,0,1,0,0,1.5h6.233a.748.748,0,1,0,0-1.5Zm0,0" transform="translate(-177.462 -352.974)" fill="#262626"/><path d="M170.353,452h-7.979a.374.374,0,0,0-.374.374,1.123,1.123,0,0,0,1.122,1.122H169.6a1.123,1.123,0,0,0,1.122-1.122A.374.374,0,0,0,170.353,452Zm0,0" transform="translate(-157.961 -440.73)" fill="#262626"/></g></svg>