<svg xmlns="http://www.w3.org/2000/svg" width="13.395" height="12.055" viewBox="0 0 13.395 12.055">
  <g id="bxs-camera" transform="translate(-2 -2)">
    <path id="Path_45" data-name="Path 45" d="M11.009,9a2.009,2.009,0,1,0,2.009,2.009A2.036,2.036,0,0,0,11.009,9Z" transform="translate(-2.312 -2.312)"/>
    <path id="Path_46" data-name="Path 46" d="M14.055,4.009H12.323L10.51,2.2a.667.667,0,0,0-.473-.2H7.358a.667.667,0,0,0-.473.2L5.071,4.009H3.339A1.341,1.341,0,0,0,2,5.349v7.367a1.341,1.341,0,0,0,1.339,1.339H14.055a1.341,1.341,0,0,0,1.339-1.339V5.349A1.341,1.341,0,0,0,14.055,4.009ZM8.7,12.046A3.394,3.394,0,0,1,5.349,8.7,3.394,3.394,0,0,1,8.7,5.349,3.394,3.394,0,0,1,12.046,8.7,3.394,3.394,0,0,1,8.7,12.046Z"/>
  </g>
</svg>
