<svg xmlns="http://www.w3.org/2000/svg" width="24.547" height="18.026" viewBox="0 0 24.547 18.026">
  <g id="email" transform="translate(-693 -745)">
    <g id="Group_114" data-name="Group 114" transform="translate(693 745)">
      <g id="Group_113" data-name="Group 113" transform="translate(0 0)">
        <path id="Path_64" data-name="Path 64" d="M21.67,68H2.877A2.88,2.88,0,0,0,0,70.877V83.15a2.88,2.88,0,0,0,2.877,2.877H21.67a2.88,2.88,0,0,0,2.877-2.877V70.877A2.88,2.88,0,0,0,21.67,68Zm.959,15.15a.96.96,0,0,1-.959.959H2.877a.96.96,0,0,1-.959-.959V70.877a.96.96,0,0,1,.959-.959H21.67a.96.96,0,0,1,.959.959Z" transform="translate(0 -68)" fill="#fff"/>
      </g>
    </g>
    <g id="Group_116" data-name="Group 116" transform="translate(693.936 746.195)">
      <g id="Group_115" data-name="Group 115" transform="translate(0 0)">
        <path id="Path_65" data-name="Path 65" d="M41.052,92.937l-10.193,7.581L20.667,92.937l-1.145,1.539,11.337,8.433L42.2,94.476Z" transform="translate(-19.522 -92.937)" fill="#fff"/>
      </g>
    </g>
  </g>
</svg>
