<svg xmlns="http://www.w3.org/2000/svg" width="18.119" height="14.494" viewBox="0 0 18.119 14.494">
  <g id="lightbulb-on" transform="translate(0 0.001)">
    <path id="Path_94" data-name="Path 94" d="M6.8,12.862a.906.906,0,0,0,.152.5l.484.727a1.008,1.008,0,0,0,.754.4H9.933a1.008,1.008,0,0,0,.754-.4l.484-.727a1.061,1.061,0,0,0,.153-.5V11.776H6.795ZM9.044,0A4.98,4.98,0,0,0,5.31,8.26a8.134,8.134,0,0,1,1.478,2.589.134.134,0,0,0,0,.022h4.536a.165.165,0,0,1,0-.022A8.134,8.134,0,0,1,12.809,8.26,4.98,4.98,0,0,0,9.044,0Zm.016,2.718A2.267,2.267,0,0,0,6.795,4.982a.453.453,0,0,1-.906,0A3.174,3.174,0,0,1,9.059,1.811a.453.453,0,1,1,0,.906ZM3.171,5.435a.679.679,0,0,0-.679-.679H.679a.679.679,0,1,0,0,1.359H2.491a.679.679,0,0,0,.679-.679Zm14.268-.679H15.627a.679.679,0,1,0,0,1.359h1.812a.679.679,0,1,0,0-1.359ZM3.711,1.562,2.142.656a.679.679,0,1,0-.68,1.177l1.569.906a.679.679,0,1,0,.68-1.177ZM16.656,9.036,15.087,8.13a.679.679,0,1,0-.68,1.177l1.569.906a.679.679,0,1,0,.68-1.177ZM3.031,8.13l-1.569.906a.679.679,0,1,0,.68,1.177l1.569-.906a.679.679,0,1,0-.68-1.177Zm11.717-5.3a.674.674,0,0,0,.34-.091l1.569-.906a.679.679,0,1,0-.68-1.177l-1.569.906a.679.679,0,0,0,.34,1.268Z" transform="translate(0 0)"/>
  </g>
</svg>
