<svg id="search-location" xmlns="http://www.w3.org/2000/svg" width="13.168" height="13.168" viewBox="0 0 13.168 13.168">
  <path id="Path_63" data-name="Path 63" d="M12.989,11.385,10.425,8.821a.617.617,0,0,0-.437-.18H9.568a5.349,5.349,0,1,0-.926.926v.419a.617.617,0,0,0,.18.437l2.564,2.564a.615.615,0,0,0,.872,0l.728-.728a.62.62,0,0,0,0-.874ZM5.35,9.052a3.7,3.7,0,1,1,3.7-3.7A3.7,3.7,0,0,1,5.35,9.052Zm0-6.172a1.9,1.9,0,0,0-1.9,1.9c0,.848,1.241,2.393,1.717,2.954a.238.238,0,0,0,.365,0C6.009,7.173,7.25,5.627,7.25,4.779a1.9,1.9,0,0,0-1.9-1.9Zm0,2.469a.617.617,0,1,1,.617-.617A.617.617,0,0,1,5.351,5.35Z" fill="#fff"/>
</svg>
