<svg id="cafe-yellow" xmlns="http://www.w3.org/2000/svg" width="15" height="15" viewBox="0 0 15 15">
  <path id="Path_37" data-name="Path 37" d="M0,176.673a2.2,2.2,0,0,0,2.2,2.2H12.8a2.2,2.2,0,0,0,2.2-2.2v-.44H9.6a5.188,5.188,0,0,0,1.705-1.869h.92a2.782,2.782,0,0,0,.33-5.543H1.577v3.091A5.181,5.181,0,0,0,3.9,176.233H0Zm11.276-5.843h.916a.752.752,0,0,1,0,1.5h-.916Zm0,0" transform="translate(0 -163.874)" fill="#ffbd14"/>
  <path id="Path_38" data-name="Path 38" d="M53.832,102.469H64.173v1.063H53.832Zm0,0" transform="translate(-52.255 -99.467)" fill="#ffbd14"/>
  <path id="Path_39" data-name="Path 39" d="M170.866.824a1.077,1.077,0,0,0,.4-.824h-.879c0,.053,0,.067-.128.186a1.077,1.077,0,0,0-.4.824,1.077,1.077,0,0,0,.4.824c.124.118.128.132.128.186h.879a1.077,1.077,0,0,0-.4-.824c-.124-.118-.128-.132-.128-.186s0-.067.128-.186Zm0,0" transform="translate(-164.883)" fill="#ffbd14"/>
  <path id="Path_40" data-name="Path 40" d="M235.144.824a1.077,1.077,0,0,0,.4-.824h-.879c0,.053,0,.067-.128.186a1.077,1.077,0,0,0-.4.824,1.077,1.077,0,0,0,.4.824c.124.118.128.132.128.186h.879a1.077,1.077,0,0,0-.4-.824c-.124-.118-.128-.132-.128-.186s0-.067.128-.186Zm0,0" transform="translate(-227.278)" fill="#ffbd14"/>
</svg>
