<svg id="envelope-open" xmlns="http://www.w3.org/2000/svg" width="11.837" height="11.837" viewBox="0 0 11.837 11.837">
  <path id="Path_59" data-name="Path 59" d="M11.837,10.727a1.11,1.11,0,0,1-1.11,1.11H1.11A1.11,1.11,0,0,1,0,10.727V4.64a1.11,1.11,0,0,1,.425-.873C1,3.316,1.477,2.949,4.221.958,4.61.674,5.382-.008,5.919,0c.536-.008,1.308.674,1.7.958,2.744,1.991,3.221,2.358,3.8,2.809a1.11,1.11,0,0,1,.425.873ZM10.319,6.182a.185.185,0,0,0-.262-.044c-.528.39-1.282.941-2.441,1.782-.389.284-1.161.966-1.7.958-.537.008-1.308-.674-1.7-.958C3.063,7.079,2.309,6.528,1.78,6.138a.185.185,0,0,0-.262.044l-.21.305a.185.185,0,0,0,.043.254c.529.391,1.282.941,2.435,1.777a4.142,4.142,0,0,0,2.133,1.1,4.142,4.142,0,0,0,2.133-1.1C9.2,7.681,9.957,7.131,10.486,6.74a.185.185,0,0,0,.043-.254Z" transform="translate(0 0)" fill="#fff"/>
</svg>
