<svg xmlns="http://www.w3.org/2000/svg" width="100" height="39.94" viewBox="0 0 100 39.94">
  <path id="Path_1" data-name="Path 1" d="M193.077,412.865a73.547,73.547,0,0,1,7.441-.718c5.2-.359,7.637-1.716,8.386-2.194a19.36,19.36,0,0,1,1.181,6.065,3.179,3.179,0,0,1-.078.838c-2.362-.16-4.764-.439-7.126-.439-6.259,0-14.094,1.317-17.2,4.429-.393-1.357-.984-2.195-.984-3.551a2.785,2.785,0,0,1,1.535-2.673c6.259-9.137,16.5-18.234,26.22-24.539-1.574-.079-3.267-.12-5-.12-4.882,0-9.882.36-12.362,1.676a12.038,12.038,0,0,1-.355-3.471,9.663,9.663,0,0,1,.395-3.472,107.809,107.809,0,0,0,17.558,1.716,37.087,37.087,0,0,0,4.685-.239,7.789,7.789,0,0,1,.944,4.309c-12.046,5.027-22.086,16.319-25.235,22.383Zm35-1.556c0,1.476.315,2.513,1.024,2.912a5.6,5.6,0,0,1-2.56.718c-1.417,0-2.125-.958-2.125-2.953a19.3,19.3,0,0,1,1.5-6.224c-2.126,4.868-5.591,8.858-8.032,9.257-1.929-.08-3.267-2.075-3.267-4.828,0-5.945,5.669-14.084,9.921-14.324a5.486,5.486,0,0,1,2.952,3.153c-4.212.678-9.369,7.74-9.369,12.648,0,.559.2.838.551.958,1.535-.319,3.425-2.554,6.26-7.341,1.1-1.876,2.677-4.868,3.818-7.262,1.1,0,2.953.878,2.914,1.4-2.126,4.469-3.583,9.177-3.583,11.891Zm9.528-5.745c2.953-5.546,7.677-10.654,9.882-10.654a5.159,5.159,0,0,1,3.465,4.15c-.158,6.783-6.772,16.519-11.181,16.519-1.22,0-2.8-.639-2.8-1.158,4.882-3.312,9.528-10.733,10.433-16.718a.719.719,0,0,0-.512-.638c-2.2.079-10.236,12.688-10.63,16.678-.236,0-.512-.32-.669-.8-.079-.239-.315-.519-.906-.958a2.321,2.321,0,0,1-.669-.758,2.268,2.268,0,0,1-.157-1.037c0-9.5,7.559-27.091,12.6-29.286a12.472,12.472,0,0,1,3.818,2.394c-5.748,4.708-10,12.209-12.677,22.264Zm18.976,9.974c-2.991-.319-4.92-2.873-4.92-6.464,0-4.269,2.716-9.416,6.417-12.169a7,7,0,0,1,4.055-1.635,7.145,7.145,0,0,1,2.48,2.833c.236,0,.472-.04.709-.04,1.417,0,2.087,1.2,2.087,3.75a13.917,13.917,0,0,1-10.827,13.726Zm7.441-16.678a11.147,11.147,0,0,0-5.433,4.11c-1.811,2.434-3.189,5.985-3.189,8.1,0,1.277.512,2.673,1.024,2.833,4.685-1.038,8.109-6.145,8.109-12.369a4.866,4.866,0,0,0-.512-2.673Zm19.961,1.835a5.268,5.268,0,0,0,.512,2.634,7.416,7.416,0,0,1-1.615,2.194,6.492,6.492,0,0,1-3.109-3.67c-4.961,3.471-6.654,6.3-8.19,13.645a5.6,5.6,0,0,1-3.228-2.154,94.644,94.644,0,0,1,4.724-15.241,9.07,9.07,0,0,1,1.772-3.112,7.807,7.807,0,0,1,3.937,1.915c-1.418,1.676-2.4,3.711-3.5,7.1a39.145,39.145,0,0,0,6.811-7.582,1.158,1.158,0,0,1,.827-.2,2.227,2.227,0,0,1,1.771.678,10.765,10.765,0,0,0-.709,3.79Z" transform="translate(-184.691 -380.906)"/>
</svg>
