<svg xmlns="http://www.w3.org/2000/svg" width="10.851" height="13.707" viewBox="0 0 10.851 13.707"><g transform="translate(5.711 9.785)"><path d="M266.667,365.5v1.03c.328-.081.571-.292.571-.535C267.238,365.772,267.048,365.614,266.667,365.5Z" transform="translate(-266.667 -365.504)" fill="#262626"/></g><g transform="translate(4.569 8.032)"><g transform="translate(0)"><path d="M224,300.567c0,.227.191.385.571.5v-1.03C224.243,300.113,224,300.324,224,300.567Z" transform="translate(-224 -300.032)" fill="#262626"/></g></g><g transform="translate(1.612)"><path d="M121.01.382a.629.629,0,0,0-.5-.2,4.661,4.661,0,0,0-1.928.848C118.262.567,117.779,0,117.369,0s-.893.567-1.218,1.03a4.653,4.653,0,0,0-1.928-.848.63.63,0,0,0-.5.2.714.714,0,0,0-.169.551c.065.751,1.168,1.849,1.892,2.493h3.838c.722-.644,1.826-1.741,1.892-2.493A.719.719,0,0,0,121.01.382Z" transform="translate(-113.556)" fill="#262626"/></g><g transform="translate(0 3.998)"><path d="M60.562,149.333H56.956c-1.09,1.179-3.623,4.063-3.623,5.426,0,2.362,2.434,4.283,5.426,4.283s5.426-1.921,5.426-4.283C64.184,153.4,61.652,150.512,60.562,149.333Zm-1.518,7.4v.309a.286.286,0,1,1-.571,0v-.308a1.25,1.25,0,0,1-1.141-1.041.285.285,0,0,1,.26-.308.283.283,0,0,1,.308.26c.019.232.258.428.572.5v-1.165c-.768-.189-1.142-.55-1.142-1.085a1.242,1.242,0,0,1,1.142-1.119v-.309a.286.286,0,0,1,.571,0v.308a1.25,1.25,0,0,1,1.141,1.041.285.285,0,1,1-.569.048c-.019-.232-.258-.428-.572-.5v1.165c.768.189,1.142.549,1.142,1.085A1.242,1.242,0,0,1,59.044,156.734Z" transform="translate(-53.333 -149.333)" fill="#262626"/></g></svg>