<svg xmlns="http://www.w3.org/2000/svg" width="57.198" height="48.16" viewBox="0 0 57.198 48.16">
  <path id="In_hac_habitasse_pla" data-name="In hac habitasse pla" d="M70.948-196.75c0,2.7-1.453,4.152-4.152,4.152h-5.19l8.3,18.268c.623,1.453,0,2.491-1.661,2.491H58.908a2.517,2.517,0,0,1-2.491-1.453l-11.21-17.022a8.917,8.917,0,0,1-1.453-5.19v-20.344c0-2.7,1.453-4.152,4.152-4.152H66.8c2.7,0,4.152,1.453,4.152,4.152Zm-30,0c0,2.7-1.453,4.152-4.152,4.152H31.6l8.3,18.268c.623,1.453,0,2.491-1.661,2.491H28.9a2.517,2.517,0,0,1-2.491-1.453L15.2-190.315a8.917,8.917,0,0,1-1.453-5.19v-20.344c0-2.7,1.453-4.152,4.152-4.152h18.89c2.7,0,4.152,1.453,4.152,4.152Z" transform="translate(-13.75 220)" fill="#ffbd14" opacity="0.25"/>
</svg>
