<svg xmlns="http://www.w3.org/2000/svg" width="16" height="15" viewBox="0 0 16 15"><g transform="translate(0 -14.72)"><g transform="translate(0 21.72)"><path d="M0,238.72a7.557,7.557,0,0,0,4.985,6.453v1.047a.5.5,0,0,0,.5.5h5.025a.5.5,0,0,0,.5-.5v-1.047A7.559,7.559,0,0,0,16,238.72Z" transform="translate(0 -238.72)" fill="#fff"/></g><g transform="translate(0.977 14.72)"><path d="M42.4,16.73a3.025,3.025,0,0,0-4.513,0,2.793,2.793,0,0,0-.759.18V15.22a.5.5,0,0,0-.5-.5,3.519,3.519,0,0,0-3.447,2.8l-.342-.34a.541.541,0,0,0-.352-.14.547.547,0,0,0-.362.14,3.494,3.494,0,0,0-.844,3.54h1.061a2.5,2.5,0,0,1,.175-2.44l.673.67,1.779,1.77h3.668l-.8-.6a.5.5,0,0,1-.1-.7.5.5,0,0,1,.7-.1l1.206.9v-1a.5.5,0,0,1,1.005,0v1l1.206-.9a.5.5,0,1,1,.6.8l-.8.6h3.341A2.985,2.985,0,0,0,42.4,16.73Zm-6.276,3.73-2-1.99a2,2,0,0,1-.01-.25,2.5,2.5,0,0,1,2.01-2.45Z" transform="translate(-31.113 -14.72)" fill="#fff"/></g></g></svg>