<svg xmlns="http://www.w3.org/2000/svg" width="27.213" height="27.205" viewBox="0 0 27.213 27.205"><path d="M530.3,280.219c-1.191-1.626-7.237-.951-8.159-2.81-1.832-3.685-1.084-3,.109-3.914,1.119-.857,1.066-3.115,1.751-3.917a6.053,6.053,0,0,0,.754-4.026c-.346-1.165-.878-.531-.958-1.41-.174-1.9.3-3.456-.763-4.378-1.031-.891-2.323-2.731-4.425-2.757a4.946,4.946,0,0,0-2.516.756c-4.535-.484-4.506,4.484-4.679,6.379-.081.879-.612.245-.958,1.41a6.052,6.052,0,0,0,.754,4.026c.685.8.632,3.061,1.751,3.917,1.193.913,1.941.228.109,3.915-.923,1.858-6.969,1.182-8.159,2.809-.912,1.243-.911,3.992-.912,3.992h27.213S531.213,281.461,530.3,280.219Z" transform="translate(-504 -257.006)" fill="#ccc"/></svg>