<?xml version="1.0" encoding="UTF-8"?>
<svg xmlns="http://www.w3.org/2000/svg" xmlns:xlink="http://www.w3.org/1999/xlink" width="15pt" height="15pt" viewBox="0 0 15 15" version="1.1">
<g id="surface1">
<path style=" stroke:none;fill-rule:nonzero;fill:rgb(0%,0%,0%);fill-opacity:1;" d="M 14.535156 13.714844 C 14.769531 13.929688 14.851562 14.449219 14.546875 14.75 C 14.246094 15.054688 13.722656 14.972656 13.511719 14.738281 C 11.546875 12.628906 9.582031 10.519531 7.617188 8.410156 L 7.394531 8.171875 C 5.339844 10.378906 3.285156 12.585938 1.234375 14.792969 C 1.019531 15.023438 0.5 15.105469 0.199219 14.804688 C -0.105469 14.503906 -0.0234375 13.980469 0.207031 13.765625 C 2.421875 11.707031 4.636719 9.648438 6.847656 7.585938 C 6.847656 7.585938 5.777344 6.429688 5.316406 5.933594 C 4.234375 6.710938 2.632812 6.414062 1.667969 5.226562 C 0.632812 3.972656 -0.257812 1.730469 0.605469 0.808594 C 1.523438 -0.0546875 3.765625 0.839844 5.019531 1.875 C 6.210938 2.839844 6.507812 4.4375 5.730469 5.519531 C 6.285156 6.039062 6.84375 6.554688 7.398438 7.074219 C 7.398438 7.074219 7.398438 7.078125 7.398438 7.078125 C 7.398438 7.078125 7.429688 7.105469 7.398438 7.074219 C 7.921875 6.589844 8.441406 6.105469 8.960938 5.621094 C 8.523438 4.867188 8.816406 3.816406 9.53125 3.214844 C 10.347656 2.527344 13.386719 -0.0820312 13.46875 0.00390625 C 13.550781 0.0820312 11.417969 2.09375 9.996094 3.523438 L 10.234375 3.761719 C 11.753906 2.429688 13.898438 0.433594 13.980469 0.511719 C 14.0625 0.59375 11.996094 2.671875 10.621094 4.148438 L 10.855469 4.382812 C 12.328125 3.003906 14.410156 0.941406 14.488281 1.023438 C 14.570312 1.105469 12.574219 3.25 11.242188 4.769531 L 11.476562 5.003906 C 12.90625 3.582031 14.917969 1.449219 15 1.53125 C 15.082031 1.613281 11.792969 5.464844 11.789062 5.472656 C 11.789062 5.472656 12.484375 4.652344 11.785156 5.46875 C 11.117188 6.253906 10.117188 6.488281 9.378906 6.039062 C 8.898438 6.554688 8.421875 7.066406 7.941406 7.582031 C 7.902344 7.542969 12.339844 11.671875 14.535156 13.714844 Z M 14.535156 13.714844 "/>
</g>
</svg>
